<svg width="22" height="16" viewBox="0 0 22 16" fill="none" xmlns="http://www.w3.org/2000/svg">
<path d="M1 8H6.625M6.4 1H3C2.05719 1 1.58579 1 1.29289 1.29289C1 1.58579 1 2.05719 1 3V13C1 13.9428 1 14.4142 1.29289 14.7071C1.58579 15 2.05719 15 3 15H6.4C8.38823 15 10 13.433 10 11.5C10 9.567 8.38823 8 6.4 8C8.38823 8 10 6.433 10 4.5C10 2.567 8.38823 1 6.4 1Z" stroke="white" stroke-width="1.5" stroke-linecap="round" stroke-linejoin="round"/>
<path d="M19 3.75C19.4142 3.75 19.75 3.41421 19.75 3C19.75 2.58579 19.4142 2.25 19 2.25V3.75ZM15 2.25C14.5858 2.25 14.25 2.58579 14.25 3C14.25 3.41421 14.5858 3.75 15 3.75V2.25ZM21 10V10.75C21.4142 10.75 21.75 10.4142 21.75 10H21ZM21.1141 13.3755C21.3215 13.017 21.199 12.5582 20.8404 12.3508C20.4819 12.1434 20.0231 12.2659 19.8157 12.6245L21.1141 13.3755ZM19 2.25H15V3.75H19V2.25ZM13 10.75H21V9.25H13V10.75ZM21.75 10C21.75 7.56483 19.6434 5.25 17 5.25V6.75C18.7749 6.75 20.25 8.35257 20.25 10H21.75ZM17 5.25C14.3566 5.25 12.25 7.56483 12.25 10H13.75C13.75 8.35257 15.2251 6.75 17 6.75V5.25ZM12.25 10V11H13.75V10H12.25ZM12.25 11C12.25 13.6234 14.3766 15.75 17 15.75V14.25C15.2051 14.25 13.75 12.7949 13.75 11H12.25ZM17 15.75C18.7591 15.75 20.2939 14.7934 21.1141 13.3755L19.8157 12.6245C19.2526 13.5978 18.202 14.25 17 14.25V15.75Z" fill="white"/>
</svg>
