<svg width="22" height="22" viewBox="0 0 22 22" fill="none" xmlns="http://www.w3.org/2000/svg">
<path d="M11 21C16.5228 21 21 16.5228 21 11C21 5.47715 16.5228 1 11 1C5.47715 1 1 5.47715 1 11C1 16.5228 5.47715 21 11 21Z" stroke="white" stroke-width="1.5" stroke-linecap="round" stroke-linejoin="round"/>
<path d="M21 12.264C20.0592 12.0881 19.1041 11.9997 18.147 12C12.795 12 8.034 14.742 5 19M18 4C14.87 7.667 10.168 10 4.91 10C3.564 10 2.255 9.847 1 9.559" stroke="white" stroke-width="1.5" stroke-linecap="round" stroke-linejoin="round"/>
<path d="M13.618 21C13.8727 19.7629 14.0007 18.5031 14 17.24C14 10.926 10.834 5.347 6 2" stroke="white" stroke-width="1.5" stroke-linecap="round" stroke-linejoin="round"/>
</svg>
