<svg width="164" height="26" viewBox="0 0 164 26" fill="none" xmlns="http://www.w3.org/2000/svg">
<path d="M2.62647 22V4.504H6.80247L10.1625 14.008L11.4585 18.496H11.6265L12.9465 14.008L16.3065 4.504H20.4585V22H17.9145V13.192L18.0105 6.904H17.8185L15.9225 12.736L12.6825 22H10.4025L7.21047 12.784L5.29047 6.904H5.09847L5.19447 13.216V22H2.62647ZM28.6273 22.216C27.8593 22.216 27.1473 22.064 26.4913 21.76C25.8513 21.456 25.2993 21.024 24.8353 20.464C24.3713 19.904 24.0113 19.224 23.7553 18.424C23.5153 17.608 23.3953 16.68 23.3953 15.64C23.3953 14.264 23.6113 13.088 24.0433 12.112C24.4913 11.136 25.1073 10.392 25.8913 9.88C26.6753 9.352 27.5873 9.088 28.6273 9.088C29.3313 9.088 29.9713 9.2 30.5473 9.424C31.1233 9.648 31.6113 9.96 32.0113 10.36C32.4273 10.744 32.7233 11.208 32.8993 11.752H33.0433L33.1393 9.304H35.4913V22H33.1393L33.0433 19.528H32.8993C32.6113 20.328 32.0913 20.976 31.3393 21.472C30.5873 21.968 29.6833 22.216 28.6273 22.216ZM29.4673 20.176C30.2353 20.176 30.8833 20 31.4113 19.648C31.9393 19.296 32.3393 18.832 32.6113 18.256C32.8833 17.68 33.0193 17.048 33.0193 16.36V14.92C33.0193 14.216 32.8753 13.576 32.5873 13C32.3153 12.424 31.9153 11.968 31.3873 11.632C30.8753 11.28 30.2513 11.104 29.5153 11.104C28.7633 11.104 28.1153 11.288 27.5713 11.656C27.0433 12.024 26.6353 12.544 26.3473 13.216C26.0753 13.888 25.9393 14.696 25.9393 15.64C25.9393 16.568 26.0753 17.376 26.3473 18.064C26.6193 18.752 27.0193 19.28 27.5473 19.648C28.0753 20 28.7153 20.176 29.4673 20.176ZM44.3507 22.216C43.4227 22.216 42.5747 22.064 41.8067 21.76C41.0547 21.44 40.4067 20.992 39.8627 20.416C39.3347 19.84 38.9187 19.152 38.6147 18.352C38.3267 17.552 38.1827 16.656 38.1827 15.664C38.1827 14.672 38.3267 13.776 38.6147 12.976C38.9187 12.176 39.3427 11.488 39.8867 10.912C40.4467 10.336 41.1107 9.896 41.8787 9.592C42.6467 9.272 43.5027 9.112 44.4467 9.112C45.4547 9.112 46.3587 9.296 47.1587 9.664C47.9587 10.032 48.5987 10.552 49.0787 11.224C49.5747 11.896 49.8627 12.672 49.9427 13.552H47.5427C47.4307 13.024 47.2227 12.584 46.9187 12.232C46.6147 11.88 46.2467 11.616 45.8147 11.44C45.3827 11.264 44.9027 11.176 44.3747 11.176C43.7827 11.176 43.2547 11.288 42.7907 11.512C42.3427 11.72 41.9587 12.024 41.6387 12.424C41.3347 12.808 41.1027 13.28 40.9427 13.84C40.7827 14.384 40.7027 15 40.7027 15.688C40.7027 16.632 40.8547 17.44 41.1587 18.112C41.4627 18.768 41.8867 19.272 42.4307 19.624C42.9747 19.976 43.6147 20.152 44.3507 20.152C44.9587 20.152 45.4867 20.048 45.9347 19.84C46.3827 19.616 46.7507 19.32 47.0387 18.952C47.3267 18.568 47.5107 18.12 47.5907 17.608H50.0147C49.9187 18.536 49.6147 19.352 49.1027 20.056C48.6067 20.744 47.9507 21.28 47.1347 21.664C46.3187 22.032 45.3907 22.216 44.3507 22.216ZM52.5678 22V4.504H55.0638V15.376L56.1678 14.176L60.8958 9.304H63.9678L59.0478 14.248L64.1598 22H61.2558L58.0878 17.2L57.3198 15.928L55.0638 18.112V22H52.5678ZM71.8374 22V4.504H74.4534V22H71.8374ZM84.2454 22V4.504H86.8614V22H84.2454ZM73.7814 14.128V11.872H84.9174V14.128H73.7814ZM95.9377 22.216C95.0097 22.216 94.1617 22.064 93.3937 21.76C92.6417 21.456 91.9937 21.016 91.4497 20.44C90.9057 19.864 90.4817 19.176 90.1777 18.376C89.8737 17.576 89.7217 16.68 89.7217 15.688C89.7217 14.376 89.9697 13.232 90.4657 12.256C90.9777 11.264 91.6977 10.496 92.6257 9.952C93.5697 9.392 94.6737 9.112 95.9377 9.112C96.8657 9.112 97.7057 9.264 98.4577 9.568C99.2257 9.856 99.8817 10.288 100.426 10.864C100.97 11.44 101.386 12.136 101.674 12.952C101.978 13.752 102.13 14.656 102.13 15.664C102.13 16.96 101.882 18.104 101.386 19.096C100.89 20.072 100.178 20.84 99.2497 21.4C98.3217 21.944 97.2177 22.216 95.9377 22.216ZM95.9377 20.152C96.6737 20.152 97.3137 19.984 97.8577 19.648C98.4177 19.296 98.8497 18.784 99.1537 18.112C99.4577 17.44 99.6097 16.624 99.6097 15.664C99.6097 14.944 99.5217 14.312 99.3457 13.768C99.1857 13.208 98.9457 12.736 98.6257 12.352C98.3057 11.952 97.9217 11.656 97.4737 11.464C97.0257 11.256 96.5137 11.152 95.9377 11.152C95.2017 11.152 94.5537 11.328 93.9937 11.68C93.4497 12.032 93.0177 12.544 92.6977 13.216C92.3937 13.872 92.2417 14.696 92.2417 15.688C92.2417 16.392 92.3217 17.024 92.4817 17.584C92.6577 18.128 92.9057 18.592 93.2257 18.976C93.5617 19.36 93.9537 19.656 94.4017 19.864C94.8657 20.056 95.3777 20.152 95.9377 20.152ZM111.65 22.216C110.962 22.216 110.33 22.112 109.754 21.904C109.178 21.68 108.69 21.368 108.29 20.968C107.89 20.552 107.586 20.08 107.378 19.552H107.234L107.138 22H104.81V4.504H107.282V11.776H107.378C107.666 10.976 108.186 10.336 108.938 9.856C109.706 9.36 110.61 9.112 111.65 9.112C112.434 9.112 113.146 9.264 113.786 9.568C114.426 9.856 114.978 10.28 115.442 10.84C115.906 11.4 116.258 12.088 116.498 12.904C116.754 13.72 116.882 14.64 116.882 15.664C116.882 17.04 116.666 18.224 116.234 19.216C115.802 20.192 115.194 20.936 114.41 21.448C113.626 21.96 112.706 22.216 111.65 22.216ZM110.762 20.2C111.53 20.2 112.178 20.024 112.706 19.672C113.234 19.304 113.642 18.784 113.93 18.112C114.218 17.424 114.362 16.608 114.362 15.664C114.362 14.96 114.282 14.328 114.122 13.768C113.962 13.208 113.73 12.736 113.426 12.352C113.138 11.952 112.77 11.656 112.322 11.464C111.874 11.256 111.37 11.152 110.81 11.152C110.058 11.152 109.418 11.328 108.89 11.68C108.362 12.016 107.962 12.472 107.69 13.048C107.418 13.624 107.282 14.256 107.282 14.944V16.384C107.282 17.088 107.418 17.728 107.69 18.304C107.962 18.88 108.362 19.344 108.89 19.696C109.418 20.032 110.042 20.2 110.762 20.2ZM126.509 22.216C125.821 22.216 125.189 22.112 124.613 21.904C124.037 21.68 123.549 21.368 123.149 20.968C122.749 20.552 122.445 20.08 122.237 19.552H122.093L121.997 22H119.669V4.504H122.141V11.776H122.237C122.525 10.976 123.045 10.336 123.797 9.856C124.565 9.36 125.469 9.112 126.509 9.112C127.293 9.112 128.005 9.264 128.645 9.568C129.285 9.856 129.837 10.28 130.301 10.84C130.765 11.4 131.117 12.088 131.357 12.904C131.613 13.72 131.741 14.64 131.741 15.664C131.741 17.04 131.525 18.224 131.093 19.216C130.661 20.192 130.053 20.936 129.269 21.448C128.485 21.96 127.565 22.216 126.509 22.216ZM125.621 20.2C126.389 20.2 127.037 20.024 127.565 19.672C128.093 19.304 128.501 18.784 128.789 18.112C129.077 17.424 129.221 16.608 129.221 15.664C129.221 14.96 129.141 14.328 128.981 13.768C128.821 13.208 128.589 12.736 128.285 12.352C127.997 11.952 127.629 11.656 127.181 11.464C126.733 11.256 126.229 11.152 125.669 11.152C124.917 11.152 124.277 11.328 123.749 11.68C123.221 12.016 122.821 12.472 122.549 13.048C122.277 13.624 122.141 14.256 122.141 14.944V16.384C122.141 17.088 122.277 17.728 122.549 18.304C122.821 18.88 123.221 19.344 123.749 19.696C124.277 20.032 124.901 20.2 125.621 20.2ZM139.063 22.24C138.263 22.24 137.535 22.144 136.879 21.952C136.239 21.76 135.687 21.488 135.223 21.136C134.759 20.784 134.399 20.36 134.143 19.864C133.903 19.352 133.775 18.8 133.759 18.208H136.207C136.239 18.704 136.375 19.12 136.615 19.456C136.871 19.792 137.215 20.04 137.647 20.2C138.095 20.36 138.591 20.44 139.135 20.44C139.999 20.44 140.655 20.28 141.103 19.96C141.567 19.624 141.799 19.16 141.799 18.568C141.799 18.12 141.695 17.776 141.487 17.536C141.295 17.28 140.983 17.08 140.551 16.936C140.119 16.792 139.551 16.672 138.847 16.576C137.791 16.416 136.911 16.208 136.207 15.952C135.503 15.68 134.975 15.304 134.623 14.824C134.271 14.328 134.095 13.688 134.095 12.904C134.095 12.136 134.303 11.472 134.719 10.912C135.135 10.336 135.719 9.888 136.471 9.568C137.223 9.232 138.103 9.064 139.111 9.064C140.103 9.064 140.959 9.224 141.679 9.544C142.415 9.864 142.991 10.312 143.407 10.888C143.823 11.464 144.047 12.152 144.079 12.952H141.655C141.623 12.456 141.495 12.056 141.271 11.752C141.063 11.448 140.767 11.232 140.383 11.104C140.015 10.96 139.575 10.888 139.063 10.888C138.279 10.888 137.663 11.048 137.215 11.368C136.783 11.688 136.567 12.12 136.567 12.664C136.567 13.08 136.679 13.416 136.903 13.672C137.127 13.912 137.471 14.104 137.935 14.248C138.415 14.376 139.023 14.496 139.759 14.608C140.735 14.736 141.567 14.936 142.255 15.208C142.943 15.48 143.455 15.864 143.791 16.36C144.143 16.856 144.319 17.52 144.319 18.352C144.319 19.184 144.103 19.888 143.671 20.464C143.239 21.04 142.623 21.48 141.823 21.784C141.039 22.088 140.119 22.24 139.063 22.24Z" fill="white"/>
<path d="M155.48 16.696C154.312 16.696 153.256 16.432 152.312 15.904C151.384 15.376 150.64 14.648 150.08 13.72C149.536 12.776 149.264 11.696 149.264 10.48C149.264 9.552 149.416 8.712 149.72 7.96C150.04 7.208 150.48 6.56 151.04 6.016C151.616 5.456 152.28 5.032 153.032 4.744C153.784 4.44 154.6 4.288 155.48 4.288C156.664 4.288 157.728 4.552 158.672 5.08C159.616 5.592 160.368 6.32 160.928 7.264C161.488 8.192 161.768 9.264 161.768 10.48C161.768 11.392 161.608 12.232 161.288 13C160.968 13.752 160.52 14.408 159.944 14.968C159.384 15.528 158.72 15.96 157.952 16.264C157.184 16.552 156.36 16.696 155.48 16.696ZM155.504 15.784C156.496 15.784 157.392 15.56 158.192 15.112C158.992 14.664 159.624 14.048 160.088 13.264C160.568 12.464 160.808 11.544 160.808 10.504C160.808 9.464 160.568 8.544 160.088 7.744C159.624 6.944 158.992 6.32 158.192 5.872C157.392 5.408 156.504 5.176 155.528 5.176C154.536 5.176 153.64 5.408 152.84 5.872C152.04 6.32 151.4 6.944 150.92 7.744C150.456 8.544 150.224 9.472 150.224 10.528C150.224 11.552 150.464 12.464 150.944 13.264C151.424 14.064 152.056 14.688 152.84 15.136C153.64 15.568 154.528 15.784 155.504 15.784ZM153.032 13.696V7.24H156.152C156.904 7.24 157.464 7.4 157.832 7.72C158.216 8.04 158.408 8.464 158.408 8.992C158.408 9.392 158.304 9.728 158.096 10C157.888 10.272 157.624 10.456 157.304 10.552V10.576C157.656 10.656 157.904 10.8 158.048 11.008C158.192 11.216 158.264 11.504 158.264 11.872V13C158.264 13.096 158.264 13.208 158.264 13.336C158.28 13.464 158.312 13.584 158.36 13.696H157.088C157.04 13.616 157.008 13.528 156.992 13.432C156.992 13.336 156.992 13.184 156.992 12.976V11.92C156.992 11.68 156.928 11.488 156.8 11.344C156.688 11.184 156.456 11.104 156.104 11.104H154.064V10.168H155.912C156.296 10.168 156.584 10.08 156.776 9.904C156.968 9.728 157.064 9.496 157.064 9.208C157.064 8.888 156.96 8.656 156.752 8.512C156.544 8.368 156.264 8.296 155.912 8.296H154.304V13.696H153.032Z" fill="#A2EB4C"/>
</svg>
