<svg width="21" height="21" viewBox="0 0 21 21" fill="none" xmlns="http://www.w3.org/2000/svg">
<path fill-rule="evenodd" clip-rule="evenodd" d="M21.3828 10.8966C20.0124 10.8966 18.6553 11.1412 17.3892 11.6165C16.123 12.0917 14.9726 12.7883 14.0035 13.6665C13.0345 14.5446 12.2658 15.5871 11.7413 16.7345C11.2168 17.8819 10.9469 19.1116 10.9469 20.3535H10.9027V20.3535H9.40267V20.3535H9.35845C9.35845 19.1116 9.08851 17.8819 8.56406 16.7345C8.03961 15.5871 7.2709 14.5446 6.30184 13.6665C5.33278 12.7883 4.18233 12.0917 2.91619 11.6165C1.65005 11.1412 0.29301 10.8966 -1.07745 10.8966V9.36309C4.5835 9.36309 8.34012 12.8463 9.40267 17.5371L9.40267 0.353516L10.9027 0.353516L10.9027 17.5372C11.9652 12.8464 15.7218 9.36309 21.3828 9.36309V10.8966Z" fill="white"/>
</svg>
