<svg width="16" height="16" viewBox="0 0 16 16" fill="none" xmlns="http://www.w3.org/2000/svg">
<path d="M7.29661 0.90088C7.53823 0.247916 8.46177 0.247916 8.70339 0.90088L10.3111 5.24575C10.3871 5.45104 10.549 5.6129 10.7542 5.68886L15.0991 7.29661C15.7521 7.53823 15.7521 8.46177 15.0991 8.70339L10.7542 10.3111C10.549 10.3871 10.3871 10.549 10.3111 10.7542L8.70339 15.0991C8.46177 15.7521 7.53823 15.7521 7.29661 15.0991L5.68886 10.7542C5.6129 10.549 5.45104 10.3871 5.24575 10.3111L0.90088 8.70339C0.247916 8.46177 0.247916 7.53823 0.90088 7.29661L5.24575 5.68886C5.45104 5.6129 5.6129 5.45104 5.68886 5.24575L7.29661 0.90088Z" fill="#A0E74B"/>
</svg>
